<svg xmlns="http://www.w3.org/2000/svg" xmlns:svg="http://www.w3.org/2000/svg" id="svg2" version="1.1" viewBox="0 0 582 930"><metadata id="metadata7"/><g id="layer1" transform="translate(-62.857143,-38.169022)"><path style="fill:#ff6a9d;fill-opacity:1;fill-rule:nonzero;stroke:none" id="path2985" d="M 62.857143,886.6479 351.42857,109.50504 645.71429,883.79075 C 451.42857,984.23468 257.14286,1006.7143 62.857143,886.6479 z"/><path style="fill:#fffcc2;fill-opacity:1;fill-rule:nonzero;stroke:none" id="path3755" d="m 405.71429,583.79077 c -2.14827,2.14827 -51.68972,-26.95201 -54.69043,-26.47675 -3.00072,0.47527 -41.12495,43.46044 -43.83194,42.08116 -2.70698,-1.37927 9.65989,-57.48848 8.28061,-60.19546 -1.37927,-2.70698 -54.04164,-25.68214 -53.56637,-28.68285 0.47527,-3.00072 57.65986,-8.57782 59.80814,-10.7261 2.14827,-2.14827 7.72538,-59.33287 10.72609,-59.80813 3.00071,-0.47527 25.97587,52.18709 28.68285,53.56637 2.70698,1.37927 58.81619,-10.98759 60.19546,-8.28061 1.37928,2.70698 -41.60589,40.83122 -42.08115,43.83193 -0.47527,3.00072 28.62502,52.54217 26.47674,54.69044 z" transform="translate(20.203051,-80.812204)"/><path id="path3757" d="m 405.71429,583.79077 c -2.14827,2.14827 -51.68972,-26.95201 -54.69043,-26.47675 -3.00072,0.47527 -41.12495,43.46044 -43.83194,42.08116 -2.70698,-1.37927 9.65989,-57.48848 8.28061,-60.19546 -1.37927,-2.70698 -54.04164,-25.68214 -53.56637,-28.68285 0.47527,-3.00072 57.65986,-8.57782 59.80814,-10.7261 2.14827,-2.14827 7.72538,-59.33287 10.72609,-59.80813 3.00071,-0.47527 25.97587,52.18709 28.68285,53.56637 2.70698,1.37927 58.81619,-10.98759 60.19546,-8.28061 1.37928,2.70698 -41.60589,40.83122 -42.08115,43.83193 -0.47527,3.00072 28.62502,52.54217 26.47674,54.69044 z" transform="matrix(0.55753184,0.20080213,-0.20080213,0.55753184,120.64301,390.58917)" style="fill:#c2f0ff;fill-opacity:1;fill-rule:nonzero;stroke:none"/><path style="fill:#fffcc2;fill-opacity:1;fill-rule:nonzero;stroke:none" id="path3759" d="m 405.71429,583.79077 c -2.14827,2.14827 -51.68972,-26.95201 -54.69043,-26.47675 -3.00072,0.47527 -41.12495,43.46044 -43.83194,42.08116 -2.70698,-1.37927 9.65989,-57.48848 8.28061,-60.19546 -1.37927,-2.70698 -54.04164,-25.68214 -53.56637,-28.68285 0.47527,-3.00072 57.65986,-8.57782 59.80814,-10.7261 2.14827,-2.14827 7.72538,-59.33287 10.72609,-59.80813 3.00071,-0.47527 25.97587,52.18709 28.68285,53.56637 2.70698,1.37927 58.81619,-10.98759 60.19546,-8.28061 1.37928,2.70698 -41.60589,40.83122 -42.08115,43.83193 -0.47527,3.00072 28.62502,52.54217 26.47674,54.69044 z" transform="matrix(0.54931149,0.74890614,-0.74890614,0.54931149,568.0549,215.61156)"/><path id="path3761" d="m 405.71429,583.79077 c -2.14827,2.14827 -51.68972,-26.95201 -54.69043,-26.47675 -3.00072,0.47527 -41.12495,43.46044 -43.83194,42.08116 -2.70698,-1.37927 9.65989,-57.48848 8.28061,-60.19546 -1.37927,-2.70698 -54.04164,-25.68214 -53.56637,-28.68285 0.47527,-3.00072 57.65986,-8.57782 59.80814,-10.7261 2.14827,-2.14827 7.72538,-59.33287 10.72609,-59.80813 3.00071,-0.47527 25.97587,52.18709 28.68285,53.56637 2.70698,1.37927 58.81619,-10.98759 60.19546,-8.28061 1.37928,2.70698 -41.60589,40.83122 -42.08115,43.83193 -0.47527,3.00072 28.62502,52.54217 26.47674,54.69044 z" transform="matrix(0.38114762,-0.07178754,0.07178754,0.38114762,79.265967,439.74977)" style="fill:#c7ffc2;fill-opacity:1;fill-rule:nonzero;stroke:none"/><path style="fill:#c2fdff;fill-opacity:1;fill-rule:nonzero;stroke:none" id="path3763" d="m 405.71429,583.79077 c -2.14827,2.14827 -51.68972,-26.95201 -54.69043,-26.47675 -3.00072,0.47527 -41.12495,43.46044 -43.83194,42.08116 -2.70698,-1.37927 9.65989,-57.48848 8.28061,-60.19546 -1.37927,-2.70698 -54.04164,-25.68214 -53.56637,-28.68285 0.47527,-3.00072 57.65986,-8.57782 59.80814,-10.7261 2.14827,-2.14827 7.72538,-59.33287 10.72609,-59.80813 3.00071,-0.47527 25.97587,52.18709 28.68285,53.56637 2.70698,1.37927 58.81619,-10.98759 60.19546,-8.28061 1.37928,2.70698 -41.60589,40.83122 -42.08115,43.83193 -0.47527,3.00072 28.62502,52.54217 26.47674,54.69044 z" transform="matrix(0.39084475,-0.44542522,0.44542522,0.39084475,110.59312,592.05758)"/><path id="path3765" d="m 405.71429,583.79077 c -2.14827,2.14827 -51.68972,-26.95201 -54.69043,-26.47675 -3.00072,0.47527 -41.12495,43.46044 -43.83194,42.08116 -2.70698,-1.37927 9.65989,-57.48848 8.28061,-60.19546 -1.37927,-2.70698 -54.04164,-25.68214 -53.56637,-28.68285 0.47527,-3.00072 57.65986,-8.57782 59.80814,-10.7261 2.14827,-2.14827 7.72538,-59.33287 10.72609,-59.80813 3.00071,-0.47527 25.97587,52.18709 28.68285,53.56637 2.70698,1.37927 58.81619,-10.98759 60.19546,-8.28061 1.37928,2.70698 -41.60589,40.83122 -42.08115,43.83193 -0.47527,3.00072 28.62502,52.54217 26.47674,54.69044 z" transform="matrix(0.46961691,-0.36141833,0.36141833,0.46961691,147.56455,733.918)" style="fill:#c2f0ff;fill-opacity:1;fill-rule:nonzero;stroke:none"/><path style="fill:#c7ffc2;fill-opacity:1;fill-rule:nonzero;stroke:none" id="path3769" d="m 405.71429,583.79077 c -2.14827,2.14827 -51.68972,-26.95201 -54.69043,-26.47675 -3.00072,0.47527 -41.12495,43.46044 -43.83194,42.08116 -2.70698,-1.37927 9.65989,-57.48848 8.28061,-60.19546 -1.37927,-2.70698 -54.04164,-25.68214 -53.56637,-28.68285 0.47527,-3.00072 57.65986,-8.57782 59.80814,-10.7261 2.14827,-2.14827 7.72538,-59.33287 10.72609,-59.80813 3.00071,-0.47527 25.97587,52.18709 28.68285,53.56637 2.70698,1.37927 58.81619,-10.98759 60.19546,-8.28061 1.37928,2.70698 -41.60589,40.83122 -42.08115,43.83193 -0.47527,3.00072 28.62502,52.54217 26.47674,54.69044 z" transform="matrix(0.27125275,0.27721635,-0.27721635,0.27125275,293.91518,645.40203)"/><path id="path3771" d="m 405.71429,583.79077 c -2.14827,2.14827 -51.68972,-26.95201 -54.69043,-26.47675 -3.00072,0.47527 -41.12495,43.46044 -43.83194,42.08116 -2.70698,-1.37927 9.65989,-57.48848 8.28061,-60.19546 -1.37927,-2.70698 -54.04164,-25.68214 -53.56637,-28.68285 0.47527,-3.00072 57.65986,-8.57782 59.80814,-10.7261 2.14827,-2.14827 7.72538,-59.33287 10.72609,-59.80813 3.00071,-0.47527 25.97587,52.18709 28.68285,53.56637 2.70698,1.37927 58.81619,-10.98759 60.19546,-8.28061 1.37928,2.70698 -41.60589,40.83122 -42.08115,43.83193 -0.47527,3.00072 28.62502,52.54217 26.47674,54.69044 z" transform="matrix(0.12820697,0.36604635,-0.36604635,0.12820697,658.55305,552.22724)" style="fill:#c7ffc2;fill-opacity:1;fill-rule:nonzero;stroke:none"/><path style="fill:#c7ffc2;fill-opacity:1;fill-rule:nonzero;stroke:none" id="path3773" d="m 405.71429,583.79077 c -2.14827,2.14827 -51.68972,-26.95201 -54.69043,-26.47675 -3.00072,0.47527 -41.12495,43.46044 -43.83194,42.08116 -2.70698,-1.37927 9.65989,-57.48848 8.28061,-60.19546 -1.37927,-2.70698 -54.04164,-25.68214 -53.56637,-28.68285 0.47527,-3.00072 57.65986,-8.57782 59.80814,-10.7261 2.14827,-2.14827 7.72538,-59.33287 10.72609,-59.80813 3.00071,-0.47527 25.97587,52.18709 28.68285,53.56637 2.70698,1.37927 58.81619,-10.98759 60.19546,-8.28061 1.37928,2.70698 -41.60589,40.83122 -42.08115,43.83193 -0.47527,3.00072 28.62502,52.54217 26.47674,54.69044 z" transform="matrix(0.12820697,0.36604635,-0.36604635,0.12820697,521.17231,384.54193)"/><path style="fill:#93ffac;fill-opacity:1;fill-rule:nonzero;stroke:none" id="path3777" d="m 478.8123,137.16397 c 0,70.29437 -56.98485,127.27922 -127.27922,127.27922 -70.29437,0 -127.27922,-56.98485 -127.27922,-127.27922 0,-70.294372 56.98485,-127.2792196 127.27922,-127.2792196 70.29437,0 127.27922,56.9848476 127.27922,127.2792196 z" transform="translate(-6.0609153,28.284272)"/></g></svg>